<?xml version="1.0" encoding="UTF-8" standalone="no"?>
<!-- Uploaded to: SVG Repo, www.svgrepo.com, Generator: SVG Repo Mixer Tools -->

<svg
   width="800px"
   height="800px"
   viewBox="0 0 512 512"
   id="Layer_1"
   version="1.1"
   xml:space="preserve"
   sodipodi:docname="location2.svg"
   inkscape:version="1.4.4 (dcaf3e7, 2026-05-05)"
   xmlns:inkscape="http://www.inkscape.org/namespaces/inkscape"
   xmlns:sodipodi="http://sodipodi.sourceforge.net/DTD/sodipodi-0.dtd"
   xmlns="http://www.w3.org/2000/svg"
   xmlns:svg="http://www.w3.org/2000/svg"><defs
   id="defs10" /><sodipodi:namedview
   id="namedview10"
   pagecolor="#505050"
   bordercolor="#ffffff"
   borderopacity="1"
   inkscape:showpageshadow="0"
   inkscape:pageopacity="0"
   inkscape:pagecheckerboard="1"
   inkscape:deskcolor="#505050"
   inkscape:lockguides="false"
   inkscape:zoom="1.2993087"
   inkscape:cx="329.02111"
   inkscape:cy="325.94255"
   inkscape:window-width="1920"
   inkscape:window-height="974"
   inkscape:window-x="-11"
   inkscape:window-y="-11"
   inkscape:window-maximized="1"
   inkscape:current-layer="g10" />

<style
   type="text/css"
   id="style1">
	.st0{fill:#69C9C9;}
	.st1{fill:#4D5152;}
</style>



<g
   id="g10">







<g
   id="g11" />











<g
   id="g12"><circle
     class="st0"
     cx="256"
     cy="213.4"
     r="125.8"
     id="circle1" /><path
     class="st1"
     d="M352,117.5c-44.2-44.2-112.4-52.6-165.9-20.4l10.3,17.1c45.6-27.4,103.8-20.3,141.5,17.4   c37.7,37.7,44.8,95.9,17.4,141.5l17.1,10.3C404.6,229.9,396.2,161.7,352,117.5z"
     id="path1"
     style="fill:#000000;fill-opacity:1" /><path
     class="st1"
     d="M337.8,295.3c-2.1,2.1-4.3,4.1-6.5,6.1l13,15.2c2.6-2.3,5.2-4.6,7.7-7.1c2.6-2.6,5.2-5.4,7.6-8.2l-15.2-12.9   C342.3,290.7,340.1,293,337.8,295.3z"
     id="path2"
     style="fill:#000000;fill-opacity:1" /><path
     class="st1"
     d="M121.1,228.8c3.5,30.8,16.9,58.7,38.9,80.7c22,22,49.9,35.4,80.7,38.9c5.1,0.6,10.1,0.9,15.2,0.9   c24.9,0,49.5-6.8,70.8-19.8l-10.4-17.1c-45.7,27.9-104.1,20.9-142-17c-37.9-37.9-44.9-96.3-17-142L140,142.8   C124.5,168.4,117.7,198.9,121.1,228.8z"
     id="path3"
     style="fill:#000000;fill-opacity:1" /><path
     class="st1"
     d="M174.2,131.6c2.3-2.3,4.6-4.4,7-6.5l-12.9-15.2c-2.8,2.4-5.6,5-8.2,7.6c-2.5,2.5-4.8,5-7.1,7.7l15.2,13   C170,135.9,172.1,133.7,174.2,131.6z"
     id="path4"
     style="fill:#000000;fill-opacity:1" /><path
     class="st1"
     d="M439.2,184.5l19.8-3.1c-6.8-43.1-26.7-82.3-57.7-113.2c-31.1-31.1-70.4-51-113.7-57.7l-3.1,19.8   c39.1,6,74.5,24.1,102.6,52.1C415.1,110.3,433.1,145.6,439.2,184.5z"
     id="path5"
     style="fill:#000000;fill-opacity:1" /><path
     class="st1"
     d="M461.1,202.4l-20,1.1c0.3,6.3,0.4,12.7,0,19l20,1C461.5,216.5,461.5,209.4,461.1,202.4z"
     id="path6"
     style="fill:#000000;fill-opacity:1" /><path
     class="st1"
     d="M387.1,344.6L256,475.7L124.9,344.6c-28-28-46-63.5-52.1-102.5L53,245.2c6.7,43.2,26.7,82.5,57.7,113.6   L256,504l145.3-145.3c31.2-31.2,51.2-70.7,57.8-114.2l-19.8-3C433.3,280.7,415.3,316.4,387.1,344.6z"
     id="path7"
     style="fill:#000000;fill-opacity:1" /><path
     class="st1"
     d="M70.8,203.5l-20-1.1c-0.4,7-0.4,14-0.1,21l20-1C70.5,216.2,70.5,209.8,70.8,203.5z"
     id="path8"
     style="fill:#000000;fill-opacity:1" /><path
     class="st1"
     d="M124.9,82.3c28-28,63.5-46.1,102.6-52.1l-3.1-19.8c-43.3,6.7-82.6,26.7-113.7,57.7   c-31,31-50.9,70.1-57.7,113.2l19.8,3.1C78.9,145.6,96.9,110.3,124.9,82.3z"
     id="path9"
     style="fill:#000000;fill-opacity:1" /><path
     class="st1"
     d="M265.5,28.3l1-20c-7-0.4-14-0.4-21,0l1,20C252.8,27.9,259.2,27.9,265.5,28.3z"
     id="path10"
     style="fill:#000000;fill-opacity:1" /></g>

</g>

</svg>
